# xmcd CD database file
#
# Track frame offsets:
#	150
#	34772
#	54387
#	67060
#	92987
#	112032
#	139175
#	153797
#	178695
#	196277
#
# Disc length: 2969 seconds
#
# Revision: 0
# Processed by: cddbd v1.4PL0 Copyright (c) Steve Scherf et al.
# Submitted via: CDex 1.40Release
#
DISCID=8b0b970a
DTITLE=David Barrett and John Garcia - Serious Fun
DYEAR=1900
DGENRE=Blues
TTITLE0=Serious Fun
TTITLE1=I Love You More Everyday
TTITLE2=Lick Train
TTITLE3=Pretty Girls Everywhere
TTITLE4=Quiet World
TTITLE5=Chicago Style
TTITLE6=Minor Attitude
TTITLE7=Dont Fight It
TTITLE8=A Real Romance
TTITLE9=Feelin Good
EXTD=ID3G: 0
EXTT0=
EXTT1=
EXTT2=
EXTT3=
EXTT4=
EXTT5=
EXTT6=
EXTT7=
EXTT8=
EXTT9=
PLAYORDER=
